<svg width="24" height="24" viewBox="0 0 24 24" fill="none" xmlns="http://www.w3.org/2000/svg">
<path d="M17.4841 19.5697L12.7622 16.9566C14.5172 15.5772 14.9938 12.8663 14.9938 11.3464V8.18267C14.9938 6.08773 12.2076 3.75453 9.409 3.75453C6.61117 3.75453 3.75109 6.08811 3.75109 8.18267V11.3464C3.75109 12.7284 4.33643 15.5243 6.10943 16.9446L1.26561 19.5696C1.26561 19.5696 0 20.1331 0 20.8355V22.7341C0 23.4328 0.567718 24 1.26561 24H17.4841C18.1827 24 18.7504 23.4328 18.7504 22.7341V20.8355C18.7504 20.0907 17.4841 19.5696 17.4841 19.5696L17.4841 19.5697ZM17.2505 22.5015H1.50002V21.1618C1.60765 21.0836 1.75802 20.9929 1.87652 20.9386C1.91174 20.9224 1.94699 20.9056 1.98037 20.8865L6.82454 18.2618C7.26629 18.0224 7.55916 17.5785 7.60378 17.0787C7.6484 16.579 7.43953 16.0893 7.04804 15.7754C5.79031 14.768 5.25144 12.5367 5.25144 11.3465V8.18274C5.25144 7.10643 7.28241 5.25313 9.40938 5.25313C11.5757 5.25313 13.4942 7.08097 13.4942 8.18274V11.3465C13.4942 12.5202 13.1293 14.7613 11.8352 15.7784C11.6401 15.9318 11.4862 16.1312 11.3871 16.3587C11.288 16.5861 11.2469 16.8345 11.2675 17.0817C11.2884 17.3288 11.3702 17.5668 11.5056 17.7746C11.6411 17.9824 11.826 18.1534 12.0437 18.2723L16.7656 20.8854C16.8073 20.9082 16.8602 20.9329 16.904 20.9521C17.0147 20.9989 17.1508 21.0772 17.2505 21.1461V22.5015ZM22.7333 15.8387L17.9412 13.2256C19.6962 11.8462 20.2433 9.13541 20.2433 7.6155V4.45174C20.2433 2.35681 17.387 0 14.5884 0C12.7697 0 10.9101 0.987902 9.82787 2.25306C10.4451 2.29124 11.1257 2.29202 11.7137 2.47933C12.5038 1.86456 13.5036 1.49892 14.5884 1.49892C16.7548 1.49892 18.7433 3.34995 18.7433 4.45214V7.6159C18.7433 8.7896 18.3083 11.0307 17.0143 12.0478C16.8192 12.2012 16.6652 12.4006 16.5661 12.6281C16.4671 12.8555 16.426 13.1039 16.4465 13.3511C16.4674 13.5982 16.5492 13.8362 16.6847 14.044C16.8201 14.2517 17.005 14.4227 17.2228 14.5417L22.0148 17.1548C22.0565 17.1776 22.1093 17.2023 22.1532 17.2214C22.2638 17.2683 22.3999 17.3466 22.4997 17.4155V18.7481H19.472C19.9291 19.0927 20.0675 19.5857 20.2449 20.2466H22.7337C23.4323 20.2466 24 19.6794 24 18.9807V17.1053C23.9996 16.3598 22.7333 15.8387 22.7333 15.8387L22.7333 15.8387Z" fill="black"/>
</svg>
