<svg width="23" height="24" viewBox="0 0 23 24" fill="none" xmlns="http://www.w3.org/2000/svg">
<path d="M14.7798 22.9149L10.2071 18.0031L11.117 17.0257L14.7798 20.9601L22.0914 13.1079L23 14.0839L14.7798 22.9149ZM20.5633 10.195H19.2781V4.14288C19.2781 3.93028 19.1958 3.73517 19.0313 3.55755C18.8668 3.37993 18.6851 3.29157 18.4864 3.29249H15.4224V6.37101H5.14081V3.29249H2.07689C1.87897 3.29249 1.69733 3.38085 1.53196 3.55755C1.3666 3.73425 1.28435 3.92936 1.2852 4.14288V21.7705C1.2852 21.9822 1.36746 22.1768 1.53196 22.3544C1.69647 22.5321 1.87768 22.6204 2.0756 22.6195H8.99642V24H2.07689C1.50112 24 1.01103 23.7828 0.606616 23.3484C0.202206 22.914 0 22.388 0 21.7705V4.1415C0 3.52488 0.202206 2.99891 0.606616 2.56359C1.01103 2.12919 1.50112 1.91199 2.07689 1.91199H8.03509C8.15504 1.37268 8.42194 0.919413 8.83577 0.5522C9.24961 0.184067 9.73156 0 10.2816 0C10.842 0 11.3278 0.184067 11.739 0.5522C12.1503 0.918493 12.4159 1.37176 12.5359 1.91199H18.4864C19.0621 1.91199 19.5522 2.12919 19.9566 2.56359C20.361 2.99799 20.5633 3.52442 20.5633 4.14288V10.195ZM10.2816 3.61001C10.5798 3.61001 10.8274 3.50463 11.0245 3.29387C11.2215 3.0822 11.3201 2.81622 11.3201 2.49594C11.3201 2.17567 11.2215 1.90969 11.0245 1.69802C10.8274 1.48634 10.5798 1.3805 10.2816 1.3805C9.98346 1.3805 9.73584 1.48634 9.53878 1.69802C9.34172 1.90969 9.24318 2.17567 9.24318 2.49594C9.24318 2.81622 9.34172 3.0822 9.53878 3.29387C9.73584 3.50555 9.98346 3.61001 10.2816 3.61001Z" fill="black"/>
</svg>
