<svg width="23" height="24" viewBox="0 0 23 24" fill="none" xmlns="http://www.w3.org/2000/svg">
<path d="M19.785 9.10551H3.21623C2.88098 9.10625 2.5502 9.18619 2.24852 9.33937C1.94684 9.49255 1.68201 9.71504 1.47376 9.99027C1.2669 10.2652 1.12232 10.5857 1.05094 10.9276C0.979562 11.2696 0.983239 11.6241 1.0617 11.9643L2.83822 19.5847C3.09497 20.5667 3.65353 21.4327 4.42745 22.0486C5.20163 22.6658 6.14949 23 7.12459 23H15.8744C16.8495 23 17.7974 22.6658 18.5715 22.0486C19.3455 21.4327 19.904 20.5667 20.1608 19.5847L21.9373 11.9655C22.0569 11.4518 22.0044 10.9107 21.7887 10.4328C21.5729 9.95477 21.207 9.56892 20.7522 9.33978C20.45 9.18619 20.1186 9.10611 19.7828 9.10551M7.05875 13.7362V18.3681M11.5006 13.7362V18.3681M15.9425 13.7362V18.3681M19.2742 9.10551C19.2738 8.04006 19.0724 6.98518 18.6817 6.00151C18.2909 5.01784 17.7184 4.12477 16.9971 3.37362C15.5364 1.85249 13.5602 0.999095 11.5006 1C9.44103 0.999095 7.46487 1.85249 6.00419 3.37362C5.28309 4.12487 4.71081 5.01798 4.32022 6.00165C3.92963 6.98531 3.72843 8.04014 3.72819 9.10551" stroke="black" stroke-width="1.5" stroke-linecap="round" stroke-linejoin="round"/>
</svg>
