<svg width="35" height="35" viewBox="0 0 35 35" fill="none" xmlns="http://www.w3.org/2000/svg">
<g clip-path="url(#clip0_56_4)">
<path d="M17.4998 2.91663C25.5542 2.91663 32.0832 9.44558 32.0832 17.5C32.0832 25.5543 25.5542 32.0833 17.4998 32.0833C9.44546 32.0833 2.9165 25.5543 2.9165 17.5C2.9165 9.44558 9.44546 2.91663 17.4998 2.91663ZM17.4998 5.83329C14.4056 5.83329 11.4382 7.06246 9.25026 9.25038C7.06233 11.4383 5.83317 14.4058 5.83317 17.5C5.83317 20.5942 7.06233 23.5616 9.25026 25.7495C11.4382 27.9375 14.4056 29.1666 17.4998 29.1666C20.594 29.1666 23.5615 27.9375 25.7494 25.7495C27.9373 23.5616 29.1665 20.5942 29.1665 17.5C29.1665 14.4058 27.9373 11.4383 25.7494 9.25038C23.5615 7.06246 20.594 5.83329 17.4998 5.83329ZM17.4998 21.875C17.8866 21.875 18.2575 22.0286 18.531 22.3021C18.8045 22.5756 18.9582 22.9465 18.9582 23.3333C18.9582 23.7201 18.8045 24.091 18.531 24.3645C18.2575 24.638 17.8866 24.7916 17.4998 24.7916C17.1131 24.7916 16.7421 24.638 16.4686 24.3645C16.1951 24.091 16.0415 23.7201 16.0415 23.3333C16.0415 22.9465 16.1951 22.5756 16.4686 22.3021C16.7421 22.0286 17.1131 21.875 17.4998 21.875ZM17.4998 8.74996C17.8866 8.74996 18.2575 8.9036 18.531 9.1771C18.8045 9.45059 18.9582 9.82152 18.9582 10.2083V18.9583C18.9582 19.3451 18.8045 19.716 18.531 19.9895C18.2575 20.263 17.8866 20.4166 17.4998 20.4166C17.1131 20.4166 16.7421 20.263 16.4686 19.9895C16.1951 19.716 16.0415 19.3451 16.0415 18.9583V10.2083C16.0415 9.82152 16.1951 9.45059 16.4686 9.1771C16.7421 8.9036 17.1131 8.74996 17.4998 8.74996Z" fill="#C40C0C"/>
</g>
<defs>
<clipPath id="clip0_56_4">
<rect width="35" height="35" fill="white"/>
</clipPath>
</defs>
</svg>
