<svg width="24" height="24" viewBox="0 0 24 24" fill="none" xmlns="http://www.w3.org/2000/svg">
<path d="M3.99999 9.5C4.00005 8.64332 4.22022 7.80102 4.63939 7.05389C5.05856 6.30677 5.66266 5.67987 6.39376 5.23333C7.12485 4.78678 7.95842 4.53558 8.81451 4.5038C9.6706 4.47202 10.5205 4.66073 11.2827 5.05184C12.0449 5.44295 12.6938 6.02334 13.1672 6.73733C13.6406 7.45133 13.9226 8.27498 13.9862 9.1293C14.0498 9.98362 13.8928 10.8399 13.5303 11.6161C13.1678 12.3923 12.6119 13.0624 11.916 13.562C13.3601 14.137 14.6045 15.1218 15.4961 16.395C16.3876 17.6682 16.8875 19.1743 16.934 20.728C16.9391 20.8277 16.9242 20.9275 16.8903 21.0214C16.8563 21.1153 16.8039 21.2015 16.7362 21.2749C16.6685 21.3483 16.5868 21.4074 16.4959 21.4488C16.405 21.4902 16.3068 21.513 16.207 21.516C16.1072 21.5189 16.0078 21.5019 15.9146 21.4659C15.8215 21.4299 15.7364 21.3756 15.6645 21.3063C15.5926 21.237 15.5353 21.1541 15.4959 21.0623C15.4564 20.9706 15.4357 20.8719 15.435 20.772C15.3838 19.0912 14.6801 17.4964 13.4731 16.3256C12.2661 15.1548 10.6506 14.5 8.96899 14.5C7.28741 14.5 5.67192 15.1548 4.4649 16.3256C3.25788 17.4964 2.5542 19.0912 2.50299 20.772C2.49298 20.9678 2.40667 21.152 2.26255 21.2849C2.11843 21.4179 1.92797 21.4891 1.73196 21.4834C1.53596 21.4776 1.35 21.3953 1.21393 21.2541C1.07786 21.113 1.0025 20.9241 1.00399 20.728C1.05097 19.167 1.5555 17.6543 2.4549 16.3776C3.3543 15.101 4.60895 14.1167 6.06299 13.547C5.42402 13.0832 4.90396 12.4747 4.54538 11.7713C4.1868 11.0679 3.99991 10.2895 3.99999 9.5ZM8.99999 6C8.54036 6 8.08524 6.09053 7.6606 6.26642C7.23596 6.44231 6.85012 6.70012 6.52512 7.02513C6.20011 7.35013 5.9423 7.73597 5.76641 8.16061C5.59052 8.58525 5.49999 9.04037 5.49999 9.5C5.49999 9.95963 5.59052 10.4148 5.76641 10.8394C5.9423 11.264 6.20011 11.6499 6.52512 11.9749C6.85012 12.2999 7.23596 12.5577 7.6606 12.7336C8.08524 12.9095 8.54036 13 8.99999 13C9.92825 13 10.8185 12.6313 11.4749 11.9749C12.1312 11.3185 12.5 10.4283 12.5 9.5C12.5 8.57174 12.1312 7.6815 11.4749 7.02513C10.8185 6.36875 9.92825 6 8.99999 6ZM19.25 1C19.4489 1 19.6397 1.07902 19.7803 1.21967C19.921 1.36032 20 1.55109 20 1.75V4H22.25C22.4489 4 22.6397 4.07902 22.7803 4.21967C22.921 4.36032 23 4.55109 23 4.75C23 4.94891 22.921 5.13968 22.7803 5.28033C22.6397 5.42098 22.4489 5.5 22.25 5.5H20V7.75C20 7.94891 19.921 8.13968 19.7803 8.28033C19.6397 8.42098 19.4489 8.5 19.25 8.5C19.0511 8.5 18.8603 8.42098 18.7197 8.28033C18.579 8.13968 18.5 7.94891 18.5 7.75V5.5H16.25C16.0511 5.5 15.8603 5.42098 15.7197 5.28033C15.579 5.13968 15.5 4.94891 15.5 4.75C15.5 4.55109 15.579 4.36032 15.7197 4.21967C15.8603 4.07902 16.0511 4 16.25 4H18.5V1.75C18.5 1.55109 18.579 1.36032 18.7197 1.21967C18.8603 1.07902 19.0511 1 19.25 1Z" fill="white"/>
</svg>
