<svg width="256" height="256" viewBox="0 0 256 256" fill="none" xmlns="http://www.w3.org/2000/svg">
<path d="M216 40H40C35.7565 40 31.6869 41.6857 28.6863 44.6863C25.6857 47.6869 24 51.7565 24 56V200C24 204.243 25.6857 208.313 28.6863 211.314C31.6869 214.314 35.7565 216 40 216H216C220.243 216 224.313 214.314 227.314 211.314C230.314 208.313 232 204.243 232 200V56C232 51.7565 230.314 47.6869 227.314 44.6863C224.313 41.6857 220.243 40 216 40ZM205.66 85.66L109.66 181.66C108.917 182.404 108.035 182.994 107.064 183.396C106.092 183.799 105.051 184.006 104 184.006C102.949 184.006 101.908 183.799 100.936 183.396C99.9653 182.994 99.083 182.404 98.34 181.66L58.34 141.66C56.8389 140.159 55.9956 138.123 55.9956 136C55.9956 133.877 56.8389 131.841 58.34 130.34C59.8411 128.839 61.8771 127.996 64 127.996C66.1229 127.996 68.1589 128.839 69.66 130.34L104 164.69L194.34 74.34C195.841 72.8389 197.877 71.9956 200 71.9956C202.123 71.9956 204.159 72.8389 205.66 74.34C207.161 75.8411 208.004 77.8771 208.004 80C208.004 82.1229 207.161 84.1589 205.66 85.66Z" fill="#4ECB71"/>
</svg>
