<svg width="256" height="256" viewBox="0 0 256 256" fill="none" xmlns="http://www.w3.org/2000/svg">
<path d="M244.24 60C243.088 59.2812 241.773 58.8674 240.417 58.7974C239.061 58.7274 237.71 59.0036 236.49 59.6C193.56 80.6 162.9 70.76 130.49 60.38C96.49 49.49 61.24 38.24 12.54 62.02C11.1793 62.6727 10.031 63.697 9.22763 64.9746C8.42429 66.2521 7.9987 67.7309 8 69.24V189.17C7.99981 190.527 8.34499 191.862 9.00304 193.05C9.6611 194.237 10.6104 195.237 11.7616 195.956C12.9128 196.675 14.228 197.09 15.5836 197.16C16.9391 197.231 18.2903 196.956 19.51 196.36C62.44 175.36 93.1 185.2 125.56 195.58C144.8 201.73 164.4 208 186.56 208C203.65 208 222.29 204.28 243.47 193.94C244.815 193.283 245.949 192.262 246.743 190.993C247.537 189.724 247.958 188.257 247.96 186.76V66.83C247.972 65.4691 247.637 64.1277 246.986 62.9325C246.335 61.7374 245.39 60.7281 244.24 60ZM232 181.67C191.4 199.84 161.75 190.36 130.44 180.35C111.2 174.2 91.6 167.93 69.44 167.93C53.871 168.006 38.4604 171.061 24.04 176.93V74.33C64.64 56.16 94.29 65.64 125.6 75.65C156.91 85.66 189.14 96 232 79.09V181.67ZM128 96C121.671 96 115.484 97.8768 110.222 101.393C104.959 104.909 100.858 109.907 98.4359 115.754C96.0138 121.601 95.3801 128.036 96.6149 134.243C97.8496 140.45 100.897 146.152 105.373 150.627C109.848 155.103 115.55 158.15 121.757 159.385C127.965 160.62 134.399 159.986 140.246 157.564C146.093 155.142 151.091 151.041 154.607 145.778C158.123 140.516 160 134.329 160 128C160 119.513 156.629 111.374 150.627 105.373C144.626 99.3714 136.487 96 128 96ZM128 144C124.835 144 121.742 143.062 119.111 141.304C116.48 139.545 114.429 137.047 113.218 134.123C112.007 131.199 111.69 127.982 112.307 124.879C112.925 121.775 114.449 118.924 116.686 116.686C118.924 114.449 121.775 112.925 124.879 112.307C127.982 111.69 131.199 112.007 134.123 113.218C137.047 114.429 139.545 116.48 141.304 119.111C143.062 121.742 144 124.836 144 128C144 132.243 142.314 136.313 139.314 139.314C136.313 142.314 132.243 144 128 144ZM56 96V144C56 146.122 55.1571 148.157 53.6569 149.657C52.1566 151.157 50.1217 152 48 152C45.8783 152 43.8434 151.157 42.3432 149.657C40.8429 148.157 40 146.122 40 144V96C40 93.8783 40.8429 91.8435 42.3432 90.3432C43.8434 88.8429 45.8783 88 48 88C50.1217 88 52.1566 88.8429 53.6569 90.3432C55.1571 91.8435 56 93.8783 56 96ZM200 160V112C200 109.878 200.843 107.843 202.343 106.343C203.843 104.843 205.878 104 208 104C210.122 104 212.157 104.843 213.657 106.343C215.157 107.843 216 109.878 216 112V160C216 162.122 215.157 164.157 213.657 165.657C212.157 167.157 210.122 168 208 168C205.878 168 203.843 167.157 202.343 165.657C200.843 164.157 200 162.122 200 160Z" fill="black"/>
</svg>
