<svg width="20" height="20" viewBox="0 0 20 20" fill="none" xmlns="http://www.w3.org/2000/svg">
<path d="M4.20903 10.324H2.40103C1.82203 10.324 1.35303 10.794 1.35303 11.372V18.202C1.35303 18.78 1.82303 19.25 2.40103 19.25H4.21003C4.79003 19.25 5.25903 18.78 5.25903 18.201V11.372C5.25876 11.0939 5.14816 10.8272 4.95149 10.6305C4.75482 10.4339 4.48816 10.3233 4.21003 10.323M10.904 0.75H9.09603C8.51603 0.75 8.04703 1.22 8.04703 1.799V18.2C8.04703 18.78 8.51703 19.249 9.09703 19.249H10.904C11.484 19.249 11.953 18.779 11.953 18.2V1.8C11.953 1.22 11.483 0.751 10.903 0.751M17.599 5.927H15.79C15.21 5.927 14.741 6.397 14.741 6.977V18.2C14.741 18.78 15.211 19.249 15.79 19.249H17.598C17.8762 19.2487 18.1428 19.1381 18.3395 18.9415C18.5362 18.7448 18.6468 18.4781 18.647 18.2V6.976C18.647 6.396 18.177 5.927 17.597 5.927" stroke="#F8F8F8" stroke-width="1.3" stroke-linecap="round" stroke-linejoin="round"/>
</svg>
