<svg width="23" height="19" viewBox="0 0 23 19" fill="none" xmlns="http://www.w3.org/2000/svg">
<path d="M3.35371 5.49885C3.35389 4.55077 3.58918 3.61883 4.03674 2.79348C4.48429 1.96814 5.12891 1.2774 5.90805 0.788319C6.68718 0.299234 7.57436 0.0284054 8.48351 0.00211538C9.39265 -0.0241747 10.2929 0.194966 11.0968 0.638273C11.9008 1.08158 12.5811 1.734 13.0719 2.53221C13.5626 3.33043 13.8471 4.24733 13.8977 5.19395C13.9483 6.14056 13.7634 7.08474 13.3607 7.93486C12.9581 8.78498 12.3515 9.51217 11.5998 10.0459C13.2186 10.6648 14.6227 11.7746 15.6313 13.2324C16.64 14.6902 17.2071 16.4293 17.2596 18.2259C17.2574 18.4196 17.1834 18.6049 17.0532 18.7431C16.923 18.8813 16.7466 18.9617 16.5608 18.9675C16.3751 18.9733 16.1944 18.9041 16.0564 18.7742C15.9185 18.6444 15.834 18.4641 15.8207 18.2709C15.7635 16.3223 14.9808 14.4735 13.6384 13.1163C12.296 11.759 10.4994 11 8.62933 11C6.75924 11 4.96262 11.759 3.62022 13.1163C2.27782 14.4735 1.49512 16.3223 1.438 18.2709C1.42839 18.4667 1.3456 18.6508 1.20735 18.7838C1.06909 18.9167 0.886385 18.988 0.698359 18.9822C0.510334 18.9765 0.331947 18.8942 0.201416 18.753C0.0708841 18.6118 -0.00141007 18.4229 2.08433e-05 18.2269C0.0523515 16.4301 0.619346 14.6908 1.62802 13.2328C2.6367 11.7748 4.04089 10.6649 5.65984 10.0459C4.94908 9.54124 4.36742 8.86317 3.96548 8.07068C3.56355 7.27819 3.35353 6.39529 3.35371 5.49885ZM8.62981 1.49885C7.61213 1.49885 6.63613 1.92028 5.91652 2.67043C5.19691 3.42057 4.79264 4.43799 4.79264 5.49885C4.79264 6.55972 5.19691 7.57714 5.91652 8.32728C6.63613 9.07743 7.61213 9.49885 8.62981 9.49885C9.64749 9.49885 10.6235 9.07743 11.3431 8.32728C12.0627 7.57714 12.467 6.55972 12.467 5.49885C12.467 4.43799 12.0627 3.42057 11.3431 2.67043C10.6235 1.92028 9.64749 1.49885 8.62981 1.49885ZM16.5823 5.49885C16.441 5.49885 16.3022 5.50885 16.166 5.52885C16.0709 5.54661 15.9733 5.54421 15.8791 5.5218C15.7849 5.49939 15.696 5.45744 15.6177 5.39844C15.5394 5.33944 15.4733 5.2646 15.4234 5.17839C15.3734 5.09218 15.3406 4.99637 15.327 4.89666C15.3133 4.79696 15.319 4.6954 15.3438 4.59806C15.3686 4.50072 15.412 4.40958 15.4713 4.33008C15.5307 4.25058 15.6047 4.18436 15.6891 4.13535C15.7736 4.08635 15.8666 4.05557 15.9626 4.04485C16.9167 3.90106 17.8896 4.09205 18.7281 4.58778C19.5667 5.0835 20.2233 5.85582 20.5947 6.78318C20.966 7.71054 21.031 8.7403 20.7795 9.71039C20.5279 10.6805 19.974 11.5358 19.205 12.1419C20.3355 12.6695 21.2953 13.5269 21.9686 14.6105C22.642 15.6941 23.0002 16.9577 23 18.2489C23 18.4478 22.9242 18.6385 22.7893 18.7792C22.6543 18.9198 22.4713 18.9989 22.2805 18.9989C22.0897 18.9989 21.9067 18.9198 21.7718 18.7792C21.6369 18.6385 21.5611 18.4478 21.5611 18.2489C21.5614 17.1329 21.2167 16.0465 20.578 15.1509C19.9393 14.2553 19.0408 13.5981 18.0155 13.2769L17.5033 13.1169V11.4409L17.8966 11.2319C18.4796 10.924 18.9461 10.4203 19.2207 9.8021C19.4953 9.18388 19.5621 8.48723 19.4102 7.82461C19.2583 7.16199 18.8966 6.57207 18.3835 6.15008C17.8704 5.72809 17.2359 5.49867 16.5823 5.49885Z" fill="black"/>
</svg>
